<svg width="1448" height="1448" xmlns="http://www.w3.org/2000/svg" version="1.1">
 <g>
  <title>Layer 1</title>
  <g id="svg_1" fill="none" stroke-width="2">
   <path id="svg_2" d="m865.89,890.12l0,66.95a4.2,4.17 -21.3 0 1 -1.38,3.1c-6.86,6.19 -13.88,13.83 -19.28,19.3q-40.62,41.08 -63.21,63.54q-2.18,2.16 -2.15,4.33q0.41,29.22 -0.02,58.51a0.6,0.6 0 0 0 0.6,0.61l31.23,0a0.44,0.44 0 0 0 0.44,-0.44q-0.1,-17.42 0.23,-41.76c0.02,-1.75 -0.31,-4.02 0.98,-5.43q3.65,-3.99 18.75,-19.08c16.86,-16.84 29.25,-29.68 48.5,-48.89q8.02,-8.01 11.17,-11.36q6.98,-7.43 11.25,-11.3q9.47,-8.58 12.6,-13.7q5.83,-9.51 5.81,-20.49q-0.13,-69.23 0.01,-175.16c0.01,-3.54 0.75,-5.08 2.46,-7.98q13.81,-23.42 21.46,-37.22c5.05,-9.11 11.1,-18.8 15.81,-27.64a0.54,0.54 0 0 0 -0.48,-0.8l-13.34,0a1.07,1.06 -74.7 0 0 -0.92,0.53l-42.34,73.33a0.19,0.19 0 0 1 -0.33,0l-42.4,-73.43a0.4,0.4 0 0 1 0.35,-0.6l26.21,0a0.32,0.32 0 0 0 0.31,-0.4q-12.98,-51.75 -51.89,-87.42q-9.23,-8.46 -24.38,-18.28q-6.95,-4.5 -16.26,-8.7q-11.74,-5.29 -17.04,-7.15c-36.65,-12.84 -78.29,-12.36 -114.51,2.32q-14.81,6 -21.89,10.09c-19.82,11.46 -37.8,26.45 -51.76,45.02q-11.75,15.65 -18.01,28.93q-9.38,19.89 -13.66,39.23a0.08,0.07 36.4 0 1 -0.14,0.02l-13.5,-23.37a0.5,0.49 -30.6 0 0 -0.69,-0.17q-0.62,0.39 -0.93,0.89q-4.92,7.69 -13.55,23.68q-0.19,0.34 -0.76,0.91a0.38,0.38 0 0 1 -0.65,-0.3q0.75,-9 3.72,-19.29q18.26,-63.17 69.05,-104c9.92,-7.97 21.66,-15.19 34.06,-21.9q6.72,-3.63 15.64,-7.08q21.12,-8.18 43.34,-11.62c34.45,-5.34 68.43,-1.35 101.19,11.02c15.48,5.85 31.32,14.85 44.09,23.99q20.62,14.78 39.69,37.81q4.47,5.4 13.36,19.51q19.33,30.71 26.48,65.69a1.11,1.11 0 0 0 2.19,-0.22q-0.13,-244.36 -0.05,-330q0.01,-8.79 -0.9,-13.46q-3.54,-18.27 -21.14,-26.07q-5.11,-2.26 -10.3,-2.39q-10.02,-0.24 -22.86,0.02a0.48,0.48 0 0 0 -0.47,0.52q0.1,1.2 0.1,1.88q0.03,38.08 0.06,120.5q0,3.06 -2.36,5.43q-20.39,20.49 -33.77,34.29q-1.91,1.97 -1.87,4.79q0.41,27.98 0.04,50.81q-0.01,0.66 -0.23,1.94a0.59,0.58 -71.2 0 1 -0.84,0.42l-14.33,-7.43a0.84,0.82 -76.6 0 1 -0.44,-0.74l0,-52.38a2.97,2.96 67.1 0 1 0.83,-2.06l36.27,-37.17a3.31,3.3 67.1 0 0 0.93,-2.3l0,-211.8a0.52,0.52 0 0 0 -0.52,-0.52l-21.45,0a0.3,0.29 -0.9 0 0 -0.3,0.3q0.27,7.81 0.26,14.17q-0.06,52.82 0.05,129.52c0,3.84 -0.13,5.9 -2.86,8.47q-3.39,3.19 -12.56,12.8c-10.43,10.92 -19.41,19.3 -31.38,31.53q-1.29,1.32 -1.3,3.43q-0.17,47.92 0.13,94.49a0.61,0.61 0 0 1 -0.76,0.59l-14.55,-3.54a0.73,0.72 7.2 0 1 -0.55,-0.7l0,-97.26a3.74,3.73 67.3 0 1 1.07,-2.62l46.12,-47.29a2.64,2.6 -23 0 0 0.76,-1.84l0,-141.63a0.49,0.48 0 0 0 -0.49,-0.48l-175.88,0a0.21,0.2 -1.3 0 0 -0.21,0.21q0.33,13.63 0.33,15.82q-0.07,110.06 -0.05,182.2c0,2.51 0.48,3.05 1.98,4.65q4.94,5.27 8.25,8.49q15.03,14.57 30.84,30.16q2.34,2.31 4.62,4.38q1.92,1.74 1.94,3.65q0.17,19.3 -0.02,41.64a0.86,0.85 -5.5 0 1 -0.68,0.82l-14.51,3.01a0.5,0.49 -6.2 0 1 -0.6,-0.48q0.06,-13.78 0.2,-37.5q0.02,-2.83 -0.41,-3.48a1.51,1.36 -87.1 0 0 -0.18,-0.22l-46.53,-45.38a1.28,1.21 12.4 0 1 -0.3,-0.44q-0.64,-1.5 -0.64,-4q-0.15,-123.3 0.11,-202.93a0.58,0.57 -90 0 0 -0.57,-0.58l-21.37,0a0.54,0.53 -90 0 0 -0.53,0.54l0,269.29a0.98,0.98 0 0 0 0.61,0.91q14.02,5.65 15.17,21.04q0.63,8.48 -4.7,15.08c-16.54,20.47 -48.11,4.33 -40.74,-21.05q2.96,-10.19 13.19,-14.52a1.92,1.91 78.7 0 0 1.18,-1.77l0,-175.42a0.25,0.24 90 0 0 -0.24,-0.25q-3.15,-0.07 -17.74,-0.2q-8.37,-0.07 -13.36,1.75c-10.28,3.75 -18.1,10.47 -21.66,20.71q-2.43,6.98 -2.43,10.91q-0.01,201.77 -0.01,333.24q0,6.77 0.24,10.16c0.33,4.9 -0.58,8.05 -2.81,11.82c-3.11,5.27 -6.45,10.15 -9.98,16.31c-5.36,9.35 -12.98,23.2 -20.16,35.15q-2.52,4.2 -7.04,12.89a0.39,0.39 0 0 0 0.35,0.57l12.98,0a2.1,2.08 14.9 0 0 1.81,-1.04l41.99,-72.72a0.26,0.26 0 0 1 0.45,0l42.49,73.6a0.26,0.26 0 0 1 -0.23,0.39l-26.57,0a0.45,0.45 0 0 0 -0.44,0.57q11.36,43.27 40.32,75.13q4.47,4.93 12.58,12.14q31.65,28.19 73,38.17q52.08,12.58 101.47,-7.83q36.03,-14.88 63.58,-45.43c16.81,-18.64 29.42,-43.73 36.35,-68.16q1.43,-5.04 1.67,-8.54a0.21,0.2 32.6 0 1 0.38,-0.08l13.74,23.8a0.65,0.65 0 0 0 1.12,0l15.37,-26.62a0.31,0.31 0 0 1 0.57,0.2c-2.95,18.95 -8.54,37.71 -17.39,55.15c-16.18,31.87 -39.43,59 -68.82,78.61q-12.61,8.41 -20.79,12.55q-45.81,23.16 -98.02,20.87q-28.24,-1.24 -58.38,-11.69q-13.55,-4.69 -25.35,-11.33q-14.71,-8.28 -23.54,-14.88c-29.54,-22.08 -52.5,-50.52 -66.99,-84.75q-7.29,-17.22 -11.82,-37.16q-0.29,-1.28 -1.42,-1a0.56,0.55 -7.1 0 0 -0.41,0.52c-0.69,51.32 -0.31,93.05 -0.27,167.87c0.01,13.56 6.3,22.98 16.81,32.62q2.17,1.99 11,11.38c7.47,7.94 20.53,19.98 26.65,26.51q6.23,6.64 6.27,17.22q0.17,42.47 0.02,84.11a0.51,0.5 0 0 0 0.51,0.5l31.41,0a0.49,0.48 0 0 0 0.49,-0.48q-0.19,-65.06 0.1,-115.84c0.02,-3.64 -2.11,-5.23 -4.97,-8.09q-22.19,-22.23 -35.69,-36.06q-3.46,-3.53 -4.96,-4.67a2.06,1.92 4.3 0 1 -0.48,-0.52q-0.55,-0.81 -0.57,-3.17q-0.04,-5.69 0.04,-54.86a0.27,0.27 0 0 1 0.44,-0.2l14.97,13.13a1.64,1.6 21.1 0 1 0.56,1.22l0,36.62a1.77,1.74 -67.8 0 0 0.51,1.24l45.32,45.57a2.6,2.58 22.6 0 1 0.76,1.83l0,123.53a0.81,0.81 0 0 0 0.81,0.81l30.62,0a0.42,0.42 0 0 0 0.42,-0.42l0,-168.45a0.46,0.46 0 0 1 0.57,-0.45l14.42,3.51a1.02,1.01 -83.1 0 1 0.77,0.99l0,164.36a1.03,1.03 0 0 0 1.03,1.03l31.38,0a0.21,0.2 90 0 0 0.2,-0.21l0,-102.7a3.38,3.36 67.4 0 1 0.96,-2.36q25.93,-26.61 45.02,-45.5c2.12,-2.09 2.12,-2.97 2.14,-5.69q0.02,-2.82 -0.13,-9.15a0.47,0.47 0 0 1 0.36,-0.47l15.17,-3.82a0.35,0.35 0 0 1 0.44,0.34q0.11,9.09 0.1,18.47c0,1.6 0.21,3.75 -0.89,4.8c-6.31,6 -12.38,12.6 -17.93,18.06q-5.76,5.68 -29.12,29.19a2.54,2.51 -23 0 0 -0.73,1.77l0,96.06a0.71,0.71 0 0 0 0.71,0.71l31.32,0a0.72,0.71 0 0 0 0.72,-0.71l0,-65.86a1.93,1.93 0 0 1 0.6,-1.4c9.44,-8.95 18.53,-18.73 29.61,-29.82c17.77,-17.78 36.01,-36.77 53.34,-53.24q2.43,-2.3 2.42,-6.63q-0.05,-42.69 -0.11,-45.72a1.27,1.26 -17.7 0 1 0.57,-1.09q7.76,-5.12 14.54,-12.09a0.31,0.31 0 0 1 0.54,0.22" vector-effect="non-scaling-stroke" stroke="#8c9eb0"/>
   <path id="svg_3" d="m598.76,511.34a8.89,8.89 0 0 0 -8.89,-8.89a8.89,8.89 0 0 0 -8.89,8.89a8.89,8.89 0 0 0 8.89,8.89a8.89,8.89 0 0 0 8.89,-8.89" vector-effect="non-scaling-stroke" stroke="#8c9eb0"/>
   <path id="svg_4" d="m860.09,1106.42a0.3,0.3 0 0 0 0.3,-0.3l0,-72.51a0.3,0.3 0 0 0 -0.51,-0.21l-31.77,32.58a0.3,0.3 0 0 0 -0.09,0.21l0,39.93a0.3,0.3 0 0 0 0.3,0.3l31.77,0" vector-effect="non-scaling-stroke" stroke="#8c9eb0"/>
   <path id="svg_5" d="m724,1229.46q79.11,0 88.15,0.05q17.48,0.1 21.6,-0.91q12.98,-3.18 20.71,-15.08q5.9,-9.09 5.91,-18.07q0.04,-41.28 0.03,-73a0.31,0.31 0 0 0 -0.31,-0.31q-68,-0.08 -136.09,-0.08q-68.08,0 -136.08,0.08a0.31,0.31 0 0 0 -0.31,0.31q-0.01,31.72 0.03,73q0.01,8.98 5.9,18.07q7.73,11.9 20.71,15.08q4.12,1.01 21.6,0.91q9.05,-0.05 88.15,-0.05" vector-effect="non-scaling-stroke" stroke="#8c9eb0"/>
   <path id="svg_6" d="m723.87,506.39q3.54,0.01 7.05,0.05a0.75,0.75 0 0 0 0.76,-0.75l0,-144.27a1.27,1.26 -12.4 0 1 0.74,-1.15c12.11,-5.43 18.72,-18.95 12.61,-31.54c-4.06,-8.38 -11.51,-13.41 -20.96,-13.42c-9.44,-0.01 -16.9,5.01 -20.98,13.37c-6.14,12.58 0.44,26.12 12.54,31.57a1.27,1.26 12.5 0 1 0.74,1.15l-0.32,144.27a0.75,0.75 0 0 0 0.76,0.75q3.51,-0.03 7.06,-0.03" vector-effect="non-scaling-stroke" stroke="#8c9eb0"/>
   <path id="svg_7" d="m739.35,610.2a15,15 0 0 0 -15,-15l-0.74,0a15,15 0 0 0 -15,15l0,102.8a15,15 0 0 0 15,15l0.74,0a15,15 0 0 0 15,-15l0,-102.8" vector-effect="non-scaling-stroke" stroke="#8c9eb0"/>
   <path id="svg_8" d="m723.94,841.59c17.55,-0.01 33.34,-4.43 49.4,-12.13c23.07,-11.07 41.67,-31.58 51.67,-54.67c11.96,-27.59 11.9,-59.86 -0.2,-87.24q-4.76,-10.76 -9.22,-17.35c-7.52,-11.12 -18.62,-23.19 -30.92,-30.87q-6.06,-3.78 -12.61,-1.81c-10.06,3.03 -12.35,13.69 -8.14,22.14q1.34,2.68 5.56,5.9q5.31,4.06 7.33,5.86c17.44,15.57 27.25,38.7 26.65,62.1c-0.64,24.7 -13.15,48.94 -33.9,62.93c-13.96,9.41 -28.7,14.38 -45.63,14.39c-16.92,0 -31.66,-4.98 -45.62,-14.38c-20.76,-13.99 -33.27,-38.22 -33.92,-62.92c-0.6,-23.4 9.2,-46.54 26.64,-62.11q2.02,-1.8 7.33,-5.86q4.22,-3.22 5.56,-5.9c4.2,-8.45 1.91,-19.11 -8.15,-22.14q-6.55,-1.97 -12.61,1.81c-12.3,7.68 -23.39,19.76 -30.91,30.88q-4.46,6.59 -9.22,17.35c-12.09,27.38 -12.15,59.65 -0.18,87.24c10,23.09 28.61,43.59 51.68,54.65c16.06,7.7 31.85,12.13 49.41,12.13" vector-effect="non-scaling-stroke" stroke="#8c9eb0"/>
   <path id="svg_9" d="m732.94,338.57a8.91,8.91 0 0 0 -8.91,-8.91a8.91,8.91 0 0 0 -8.91,8.91a8.91,8.91 0 0 0 8.91,8.91a8.91,8.91 0 0 0 8.91,-8.91" vector-effect="non-scaling-stroke" stroke="#8c9eb0"/>
  </g>
  <path id="svg_11" d="m865.35,889.9q-6.78,6.97 -14.54,12.09a1.27,1.26 -17.7 0 0 -0.57,1.09q0.06,3.03 0.11,45.72q0.01,4.33 -2.42,6.63c-17.33,16.47 -35.57,35.46 -53.34,53.24c-11.08,11.09 -20.17,20.87 -29.61,29.82a1.93,1.93 0 0 0 -0.6,1.4l0,65.86a0.72,0.71 0 0 1 -0.72,0.71l-31.32,0a0.71,0.71 0 0 1 -0.71,-0.71l0,-96.06a2.54,2.51 -23 0 1 0.73,-1.77q23.36,-23.51 29.12,-29.19c5.55,-5.46 11.62,-12.06 17.93,-18.06c1.1,-1.05 0.89,-3.2 0.89,-4.8q0.01,-9.38 -0.1,-18.47a0.35,0.35 0 0 0 -0.44,-0.34l-15.17,3.82a0.47,0.47 0 0 0 -0.36,0.47q0.15,6.33 0.13,9.15c-0.02,2.72 -0.02,3.6 -2.14,5.69q-19.09,18.89 -45.02,45.5a3.38,3.36 67.4 0 0 -0.96,2.36l0,102.7a0.21,0.2 -90 0 1 -0.2,0.21l-31.38,0a1.03,1.03 0 0 1 -1.03,-1.03l0,-164.36a1.02,1.01 -83.1 0 0 -0.77,-0.99l-14.42,-3.51a0.46,0.46 0 0 0 -0.57,0.45l0,168.45a0.42,0.42 0 0 1 -0.42,0.42l-30.62,0a0.81,0.81 0 0 1 -0.81,-0.81l0,-123.53a2.6,2.58 22.6 0 0 -0.76,-1.83l-45.32,-45.57a1.77,1.74 -67.8 0 1 -0.51,-1.24l0,-36.62a1.64,1.6 21.1 0 0 -0.56,-1.22l-14.97,-13.13a0.27,0.27 0 0 0 -0.44,0.2q-0.08,49.17 -0.04,54.86q0.02,2.36 0.57,3.17a2.06,1.92 4.3 0 0 0.48,0.52q1.5,1.14 4.96,4.67q13.5,13.83 35.69,36.06c2.86,2.86 4.99,4.45 4.97,8.09q-0.29,50.78 -0.1,115.84a0.49,0.48 0 0 1 -0.49,0.48l-31.41,0a0.51,0.5 0 0 1 -0.51,-0.5q0.15,-41.64 -0.02,-84.11q-0.04,-10.58 -6.27,-17.22c-6.12,-6.53 -19.18,-18.57 -26.65,-26.51q-8.83,-9.39 -11,-11.38c-10.51,-9.64 -16.8,-19.06 -16.81,-32.62c-0.04,-74.82 -0.42,-116.55 0.27,-167.87a0.56,0.55 -7.1 0 1 0.41,-0.52q1.13,-0.28 1.42,1q4.53,19.94 11.82,37.16c14.49,34.23 37.45,62.67 66.99,84.75q8.83,6.6 23.54,14.88q11.8,6.64 25.35,11.33q30.14,10.45 58.38,11.69q52.21,2.29 98.02,-20.87q8.18,-4.14 20.79,-12.55c29.39,-19.61 52.64,-46.74 68.82,-78.61c8.85,-17.44 14.44,-36.2 17.39,-55.15a0.31,0.31 0 0 0 -0.57,-0.2l-15.37,26.62a0.65,0.65 0 0 1 -1.12,0l-13.74,-23.8a0.21,0.2 32.6 0 0 -0.38,0.08q-0.24,3.5 -1.67,8.54c-6.93,24.43 -19.54,49.52 -36.35,68.16q-27.55,30.55 -63.58,45.43q-49.39,20.41 -101.47,7.83q-41.35,-9.98 -73,-38.17q-8.11,-7.21 -12.58,-12.14q-28.96,-31.86 -40.32,-75.13a0.45,0.45 0 0 1 0.44,-0.57l26.57,0a0.26,0.26 0 0 0 0.23,-0.39l-42.49,-73.6a0.26,0.26 0 0 0 -0.45,0l-41.99,72.72a2.1,2.08 14.9 0 1 -1.81,1.04l-12.98,0a0.39,0.39 0 0 1 -0.35,-0.57q4.52,-8.69 7.04,-12.89c7.18,-11.95 14.8,-25.8 20.16,-35.15c3.53,-6.16 6.87,-11.04 9.98,-16.31c2.23,-3.77 3.14,-6.92 2.81,-11.82q-0.24,-3.39 -0.24,-10.16q0,-131.47 0.01,-333.24q0,-3.93 2.43,-10.91c3.56,-10.24 11.38,-16.96 21.66,-20.71q4.99,-1.82 13.36,-1.75q14.59,0.13 17.74,0.2a0.25,0.24 90 0 1 0.24,0.25l0,175.42a1.92,1.91 78.7 0 1 -1.18,1.77q-10.23,4.33 -13.19,14.52c-7.37,25.38 24.2,41.52 40.74,21.05q5.33,-6.6 4.7,-15.08q-1.15,-15.39 -15.17,-21.04a0.98,0.98 0 0 1 -0.61,-0.91l0,-269.29a0.54,0.53 90 0 1 0.53,-0.54l21.37,0a0.58,0.57 90 0 1 0.57,0.58q-0.26,79.63 -0.11,202.93q0,2.5 0.64,4a1.28,1.21 12.4 0 0 0.3,0.44l46.53,45.38a1.51,1.36 -87.1 0 1 0.18,0.22q0.43,0.65 0.41,3.48q-0.14,23.72 -0.2,37.5a0.5,0.49 -6.2 0 0 0.6,0.48l14.51,-3.01a0.86,0.85 -5.5 0 0 0.68,-0.82q0.19,-22.34 0.02,-41.64q-0.02,-1.91 -1.94,-3.65q-2.28,-2.07 -4.62,-4.38q-15.81,-15.59 -30.84,-30.16q-3.31,-3.22 -8.25,-8.49c-1.5,-1.6 -1.98,-2.14 -1.98,-4.65q-0.02,-72.14 0.05,-182.2q0,-2.19 -0.33,-15.82a0.21,0.2 -1.3 0 1 0.21,-0.21l175.88,0a0.49,0.48 0 0 1 0.49,0.48l0,141.63a2.64,2.6 -23 0 1 -0.76,1.84l-46.12,47.29a3.74,3.73 67.3 0 0 -1.07,2.62l0,97.26a0.73,0.72 7.2 0 0 0.55,0.7l14.55,3.54a0.61,0.61 0 0 0 0.76,-0.59q-0.3,-46.57 -0.13,-94.49q0.01,-2.11 1.3,-3.43c11.97,-12.23 20.95,-20.61 31.38,-31.53q9.17,-9.61 12.56,-12.8c2.73,-2.57 2.86,-4.63 2.86,-8.47q-0.11,-76.7 -0.05,-129.52q0.01,-6.36 -0.26,-14.17a0.3,0.29 -0.9 0 1 0.3,-0.3l21.45,0a0.52,0.52 0 0 1 0.52,0.52l0,211.8a3.31,3.3 67.1 0 1 -0.93,2.3l-36.27,37.17a2.97,2.96 67.1 0 0 -0.83,2.06l0,52.38a0.84,0.82 -76.6 0 0 0.44,0.74l14.33,7.43a0.59,0.58 -71.2 0 0 0.84,-0.42q0.22,-1.28 0.23,-1.94q0.37,-22.83 -0.04,-50.81q-0.04,-2.82 1.87,-4.79q13.38,-13.8 33.77,-34.29q2.36,-2.37 2.36,-5.43q-0.03,-82.42 -0.06,-120.5q0,-0.68 -0.1,-1.88a0.48,0.48 0 0 1 0.47,-0.52q12.84,-0.26 22.86,-0.02q5.19,0.13 10.3,2.39q17.6,7.8 21.14,26.07q0.91,4.67 0.9,13.46q-0.08,85.64 0.05,330a1.11,1.11 0 0 1 -2.19,0.22q-7.15,-34.98 -26.48,-65.69q-8.89,-14.11 -13.36,-19.51q-19.07,-23.03 -39.69,-37.81c-12.77,-9.14 -28.61,-18.14 -44.09,-23.99c-32.76,-12.37 -66.74,-16.36 -101.19,-11.02q-22.22,3.44 -43.34,11.62q-8.92,3.45 -15.64,7.08c-12.4,6.71 -24.14,13.93 -34.06,21.9q-50.79,40.83 -69.05,104q-2.97,10.29 -3.72,19.29a0.38,0.38 0 0 0 0.65,0.3q0.57,-0.57 0.76,-0.91q8.63,-15.99 13.55,-23.68q0.31,-0.5 0.93,-0.89a0.5,0.49 -30.6 0 1 0.69,0.17l13.5,23.37a0.08,0.07 36.4 0 0 0.14,-0.02q4.28,-19.34 13.66,-39.23q6.26,-13.28 18.01,-28.93c13.96,-18.57 31.94,-33.56 51.76,-45.02q7.08,-4.09 21.89,-10.09c36.22,-14.68 77.86,-15.16 114.51,-2.32q5.3,1.86 17.04,7.15q9.31,4.2 16.26,8.7q15.15,9.82 24.38,18.28q38.91,35.67 51.89,87.42a0.32,0.32 0 0 1 -0.31,0.4l-26.21,0a0.4,0.4 0 0 0 -0.35,0.6l42.4,73.43a0.19,0.19 0 0 0 0.33,0l42.34,-73.33a1.07,1.06 -74.7 0 1 0.92,-0.53l13.34,0a0.54,0.54 0 0 1 0.48,0.8c-4.71,8.84 -10.76,18.53 -15.81,27.64q-7.65,13.8 -21.46,37.22c-1.71,2.9 -2.45,4.44 -2.46,7.98q-0.14,105.93 -0.01,175.16q0.02,10.98 -5.81,20.49q-3.13,5.12 -12.6,13.7q-4.27,3.87 -11.25,11.3q-3.15,3.35 -11.17,11.36c-19.25,19.21 -31.64,32.05 -48.5,48.89q-15.1,15.09 -18.75,19.08c-1.29,1.41 -0.96,3.68 -0.98,5.43q-0.33,24.34 -0.23,41.76a0.44,0.44 0 0 1 -0.44,0.44l-31.23,0a0.6,0.6 0 0 1 -0.6,-0.61q0.43,-29.29 0.02,-58.51q-0.03,-2.17 2.15,-4.33q22.59,-22.46 63.21,-63.54c5.4,-5.47 12.42,-13.11 19.28,-19.3a4.2,4.17 -21.3 0 0 1.38,-3.1l0,-66.95a0.31,0.31 0 0 0 -0.54,-0.22zm-141.48,-383.51q3.54,0.01 7.05,0.05a0.75,0.75 0 0 0 0.76,-0.75l0,-144.27a1.27,1.26 -12.4 0 1 0.74,-1.15c12.11,-5.43 18.72,-18.95 12.61,-31.54c-4.06,-8.38 -11.51,-13.41 -20.96,-13.42c-9.44,-0.01 -16.9,5.01 -20.98,13.37c-6.14,12.58 0.44,26.12 12.54,31.57a1.27,1.26 12.5 0 1 0.74,1.15l-0.32,144.27a0.75,0.75 0 0 0 0.76,0.75q3.51,-0.03 7.06,-0.03zm15.48,103.81a15,15 0 0 0 -15,-15l-0.74,0a15,15 0 0 0 -15,15l0,102.8a15,15 0 0 0 15,15l0.74,0a15,15 0 0 0 15,-15l0,-102.8zm-15.41,231.39c17.55,-0.01 33.34,-4.43 49.4,-12.13c23.07,-11.07 41.67,-31.58 51.67,-54.67c11.96,-27.59 11.9,-59.86 -0.2,-87.24q-4.76,-10.76 -9.22,-17.35c-7.52,-11.12 -18.62,-23.19 -30.92,-30.87q-6.06,-3.78 -12.61,-1.81c-10.06,3.03 -12.35,13.69 -8.14,22.14q1.34,2.68 5.56,5.9q5.31,4.06 7.33,5.86c17.44,15.57 27.25,38.7 26.65,62.1c-0.64,24.7 -13.15,48.94 -33.9,62.93c-13.96,9.41 -28.7,14.38 -45.63,14.39c-16.92,0 -31.66,-4.98 -45.62,-14.38c-20.76,-13.99 -33.27,-38.22 -33.92,-62.92c-0.6,-23.4 9.2,-46.54 26.64,-62.11q2.02,-1.8 7.33,-5.86q4.22,-3.22 5.56,-5.9c4.2,-8.45 1.91,-19.11 -8.15,-22.14q-6.55,-1.97 -12.61,1.81c-12.3,7.68 -23.39,19.76 -30.91,30.88q-4.46,6.59 -9.22,17.35c-12.09,27.38 -12.15,59.65 -0.18,87.24c10,23.09 28.61,43.59 51.68,54.65c16.06,7.7 31.85,12.13 49.41,12.13z" fill="#000000"/>
  <circle id="svg_13" r="8.91" cy="338.57" cx="724.03" fill="#000000"/>
  <circle id="svg_14" r="8.89" cy="511.34" cx="589.87" fill="#000000"/>
  <path id="svg_17" d="m860.09,1106.42l-31.77,0a0.3,0.3 0 0 1 -0.3,-0.3l0,-39.93a0.3,0.3 0 0 1 0.09,-0.21l31.77,-32.58a0.3,0.3 0 0 1 0.51,0.21l0,72.51a0.3,0.3 0 0 1 -0.3,0.3z" fill="#000000"/>
  <path id="svg_18" d="m724,1122.06q68.09,0 136.09,0.08a0.31,0.31 0 0 1 0.31,0.31q0.01,31.72 -0.03,73q-0.01,8.98 -5.91,18.07q-7.73,11.9 -20.71,15.08q-4.12,1.01 -21.6,0.91q-9.04,-0.05 -88.15,-0.05q-79.1,0 -88.15,0.05q-17.48,0.1 -21.6,-0.91q-12.98,-3.18 -20.71,-15.08q-5.89,-9.09 -5.9,-18.07q-0.04,-41.28 -0.03,-73a0.31,0.31 0 0 1 0.31,-0.31q68,-0.08 136.08,-0.08z" fill="#000000"/>
 </g>

</svg>